<?xml version="1.0" standalone="no"?>
<!DOCTYPE svg PUBLIC "-//W3C//DTD SVG 20010904//EN"
 "http://www.w3.org/TR/2001/REC-SVG-20010904/DTD/svg10.dtd">
<svg version="1.0" xmlns="http://www.w3.org/2000/svg"
 width="600.000000pt" height="600.000000pt" viewBox="0 0 600.000000 600.000000"
 preserveAspectRatio="xMidYMid meet">

<g transform="translate(0.000000,600.000000) scale(0.100000,-0.100000)"
>
<path d="M2705 5879 c-774 -59 -1410 -265 -1671 -542 -218 -230 -161 -479 156
-689 789 -521 2684 -574 3677 -102 199 95 369 237 429 360 40 81 45 184 14
267 -125 332 -743 596 -1620 693 -172 19 -801 27 -985 13z m860 -309 c493 -41
912 -146 1220 -304 127 -65 245 -162 245 -201 0 -56 -89 -136 -238 -214 l-81
-42 -38 19 c-70 36 -277 103 -433 142 -167 41 -335 70 -550 96 -183 22 -761
30 -969 15 -430 -33 -809 -112 -1096 -227 l-109 -44 -95 53 c-117 64 -211 150
-211 191 0 43 40 88 134 150 301 201 866 344 1489 376 184 10 554 4 732 -10z"/>
<path d="M582 4463 c-270 -487 -445 -963 -497 -1358 -23 -167 -16 -427 13
-555 52 -223 140 -381 297 -535 231 -227 567 -351 891 -331 289 18 569 103
892 272 624 324 1349 961 2075 1822 70 84 124 152 120 152 -4 -1 -67 -13 -140
-28 l-132 -27 -126 -145 c-524 -600 -1061 -1094 -1530 -1407 -461 -307 -853
-455 -1210 -455 -136 0 -215 11 -330 49 -287 92 -505 297 -596 561 -73 209
-77 478 -13 784 63 303 205 668 398 1026 l77 142 -63 70 c-34 39 -63 70 -64
70 -1 0 -29 -48 -62 -107z"/>
<path d="M900 3286 l0 -1196 33 -20 c82 -51 255 -89 344 -75 l43 6 0 1117 0
1117 -99 48 c-84 41 -215 122 -298 183 l-23 16 0 -1196z"/>
<path d="M5245 4419 c-44 -32 -137 -88 -207 -124 l-128 -66 -2 -1578 -3 -1578
-28 -37 c-97 -127 -372 -260 -712 -345 -621 -155 -1493 -153 -2115 4 -325 82
-612 225 -696 346 l-29 42 -3 219 -3 218 -127 1 c-70 0 -164 6 -210 13 l-83
12 3 -275 c3 -262 5 -279 27 -335 155 -389 746 -662 1651 -763 220 -25 860
-25 1075 0 585 66 1025 197 1329 395 39 25 112 86 161 136 93 94 136 161 172
266 17 52 18 134 21 1783 1 950 -1 1727 -5 1726 -5 0 -44 -27 -88 -60z"/>
<path d="M1626 4021 c68 -168 95 -284 101 -436 6 -142 4 -155 -68 -480 -67
-306 -60 -443 28 -501 76 -50 171 -34 205 36 29 58 24 194 -18 441 -29 167
-37 243 -38 349 -1 146 8 196 67 359 l30 83 49 -5 c61 -8 116 -34 140 -67 11
-14 30 -68 44 -120 57 -207 101 -255 178 -196 68 51 121 203 133 373 l6 92
-34 5 c-19 3 -88 12 -154 21 -167 23 -384 67 -557 115 -81 22 -149 40 -151 40
-3 0 15 -49 39 -109z"/>
</g>
</svg>
