<?xml version="1.0" standalone="no"?>
<!DOCTYPE svg PUBLIC "-//W3C//DTD SVG 20010904//EN"
 "http://www.w3.org/TR/2001/REC-SVG-20010904/DTD/svg10.dtd">
<svg version="1.0" xmlns="http://www.w3.org/2000/svg"
 width="512.000000pt" height="512.000000pt" viewBox="0 0 512.000000 512.000000"
 preserveAspectRatio="xMidYMid meet">

<g transform="translate(0.000000,512.000000) scale(0.100000,-0.100000)">
<path d="M3665 4788 c-581 -39 -1080 -465 -1214 -1035 -92 -394 -7 -802 236
-1124 258 -342 650 -539 1078 -539 371 0 711 143 966 407 225 231 349 499 381
820 42 426 -128 853 -455 1141 -271 239 -620 355 -992 330z m276 -323 c537
-94 908 -579 858 -1120 -12 -123 -30 -195 -76 -305 -147 -348 -463 -586 -838
-630 -431 -51 -855 180 -1053 575 -120 240 -135 560 -39 821 169 460 663 744
1148 659z"/>
<path d="M3707 4142 c-12 -13 -17 -37 -17 -86 0 -55 -3 -68 -17 -72 -68 -22
-146 -70 -176 -107 -100 -124 -88 -299 26 -391 50 -39 69 -50 207 -114 58 -26
119 -63 137 -81 68 -68 50 -161 -42 -208 -47 -25 -146 -19 -245 15 -102 35
-121 31 -145 -31 -33 -88 -9 -113 147 -151 l93 -23 3 -69 c3 -81 21 -104 82
-104 62 0 79 22 82 109 l3 74 45 13 c152 44 252 206 220 357 -24 119 -104 196
-284 274 -135 59 -190 104 -190 156 0 112 122 152 296 97 81 -25 98 -19 122
40 22 55 20 87 -4 100 -11 6 -60 21 -108 33 l-87 22 -3 65 c-4 82 -19 100 -82
100 -33 0 -52 -6 -63 -18z"/>
<path d="M2244 1950 c-101 -8 -645 -83 -702 -97 -49 -12 -49 -13 -94 -709 -45
-702 -45 -694 2 -694 10 0 45 20 77 45 80 60 158 97 213 103 29 3 126 -11 261
-36 720 -137 1377 -232 1602 -232 123 0 187 20 417 131 266 129 509 267 760
434 236 157 299 223 330 346 30 119 -65 232 -181 216 -22 -3 -103 -37 -182
-75 -278 -137 -576 -239 -867 -297 -241 -49 -530 -38 -801 30 -172 44 -299
106 -319 159 -15 38 4 41 142 17 270 -46 376 -61 489 -67 301 -17 489 70 489
226 0 88 -44 131 -175 171 -55 17 -212 66 -350 109 -325 102 -516 154 -695
190 -173 34 -267 41 -416 30z"/>
<path d="M250 1909 c-44 -9 -97 -66 -104 -111 -18 -109 -146 -1323 -141 -1339
4 -10 18 -28 32 -39 25 -19 39 -20 485 -20 509 0 512 0 541 62 20 43 119 1285
106 1332 -13 45 -47 75 -93 81 -22 2 -192 12 -376 20 -184 8 -353 16 -375 18
-22 2 -56 0 -75 -4z m418 -911 c69 -17 136 -87 152 -159 26 -117 -44 -228
-164 -260 -107 -29 -231 50 -256 163 -24 109 38 221 141 253 56 17 70 18 127
3z"/>
</g>
</svg>
